<svg width="40" height="40" viewBox="0 0 40 40" xmlns="http://www.w3.org/2000/svg"><title>icon-whatsapp</title><path d="M26.334 22.4c-.322-.177-1.903-1.03-2.2-1.15-.296-.12-.512-.184-.743.136-.23.32-.886 1.034-1.085 1.246-.2.21-.392.23-.713.054-.322-.175-1.365-.562-2.575-1.724-.942-.905-1.56-2.004-1.738-2.338-.18-.336-.002-.506.168-.663.153-.14.342-.37.513-.555.172-.185.232-.32.35-.534.116-.214.07-.407-.007-.575-.076-.166-.67-1.803-.92-2.47-.248-.666-.524-.567-.716-.574-.19-.006-.408-.042-.627-.05-.22-.008-.577.06-.89.377-.312.317-1.188 1.077-1.25 2.69-.06 1.613 1.057 3.215 1.212 3.44.156.224 2.13 3.72 5.413 5.157 3.283 1.437 3.3 1 3.902.967.603-.03 1.97-.72 2.27-1.474.303-.755.327-1.41.25-1.55-.077-.14-.292-.23-.613-.407zm-6.02 7.77c-2.17 0-4.192-.65-5.88-1.767l-4.108 1.315 1.335-3.97c-1.278-1.76-2.034-3.927-2.034-6.266 0-5.894 4.794-10.69 10.688-10.69 5.894 0 10.688 4.796 10.688 10.69 0 5.894-4.794 10.688-10.688 10.688zm.006-23.848c-7.264 0-13.152 5.888-13.152 13.152 0 2.485.69 4.81 1.887 6.79L6.68 33.323l7.283-2.332c1.884 1.042 4.05 1.636 6.357 1.636 7.264 0 13.152-5.89 13.152-13.152 0-7.264-5.888-13.152-13.152-13.152z" fill="#FFF" fill-rule="evenodd"/></svg>