<?xml version="1.0" encoding="utf-8"?>
<!-- Generator: Adobe Illustrator 16.0.0, SVG Export Plug-In . SVG Version: 6.00 Build 0)  -->
<!DOCTYPE svg PUBLIC "-//W3C//DTD SVG 1.1//EN" "http://www.w3.org/Graphics/SVG/1.1/DTD/svg11.dtd">
<svg version="1.1" id="Capa_1" xmlns="http://www.w3.org/2000/svg" xmlns:xlink="http://www.w3.org/1999/xlink" x="0px" y="0px"
	 width="50px" height="50px" viewBox="0 0 50 50" enable-background="new 0 0 50 50" xml:space="preserve">
<g>
	<path fill="#503339" d="M8.924,26.703c0-9,7.273-16.249,16.248-16.249c8.973,0,16.248,7.249,16.248,16.249H8.924z"/>
	<circle fill="#FFFFFF" cx="32.242" cy="20.046" r="2.763"/>
	<circle cx="32.242" cy="20.046" r="0.977"/>
	<circle fill="#FFFFFF" cx="18.141" cy="20.046" r="2.762"/>
	<circle cx="18.141" cy="20.046" r="0.978"/>
	<g>
		<path fill="#7F636B" d="M43.499,15.068c-1.807,0-3.705-0.797-4.244-1.042c-0.227-0.103-0.41-0.284-0.516-0.51
			c-0.884-1.9-0.486-4.177,0.989-5.668c1.093-1.103,3.797-2.698,5.829-2.698c0.465,0,0.882,0.083,1.241,0.246
			c0.228,0.104,0.41,0.285,0.516,0.511c0.855,1.839,0.333,6.667-1.233,8.247C45.48,14.76,44.611,15.068,43.499,15.068L43.499,15.068
			z"/>
		<g>
			<path fill="#333333" d="M45.558,6.195c0.303,0,0.577,0.047,0.81,0.152c0.684,1.47,0.181,5.853-1.027,7.071
				c-0.436,0.44-1.1,0.605-1.841,0.605c-1.313,0-2.868-0.52-3.812-0.948c-0.685-1.471-0.423-3.273,0.784-4.492
				C41.49,7.555,43.932,6.195,45.558,6.195 M45.558,4.106c-2.449,0-5.369,1.794-6.57,3.006c-1.782,1.801-2.263,4.551-1.194,6.844
				c0.21,0.453,0.576,0.815,1.031,1.021c0.587,0.267,2.658,1.135,4.675,1.135c1.745,0,2.771-0.665,3.324-1.223
				c1.875-1.891,2.458-7.23,1.438-9.422c-0.211-0.452-0.576-0.814-1.03-1.021C46.735,4.22,46.172,4.106,45.558,4.106L45.558,4.106z"
				/>
		</g>
	</g>
	<g>
		<path fill="#7F636B" d="M6.978,15.068c-1.112,0-1.981-0.308-2.583-0.914C2.83,12.576,2.308,7.748,3.162,5.908
			C3.268,5.681,3.45,5.5,3.678,5.396C4.037,5.233,4.454,5.15,4.919,5.15c2.032,0,4.736,1.595,5.829,2.697
			c1.475,1.489,1.873,3.766,0.99,5.667c-0.105,0.227-0.288,0.408-0.516,0.511C10.685,14.271,8.787,15.068,6.978,15.068z"/>
		<g>
			<path fill="#333333" d="M4.919,6.195c1.626,0,4.067,1.359,5.087,2.388c1.208,1.219,1.468,3.021,0.785,4.492
				c-0.944,0.428-2.499,0.948-3.813,0.948c-0.74,0-1.405-0.165-1.841-0.605C3.929,12.2,3.427,7.818,4.109,6.348
				C4.342,6.242,4.616,6.195,4.919,6.195 M4.919,4.106L4.919,4.106c-0.614,0-1.178,0.114-1.674,0.34
				c-0.454,0.207-0.82,0.569-1.03,1.022C1.196,7.661,1.779,13,3.653,14.889c0.553,0.558,1.579,1.223,3.324,1.223
				c2.019,0,4.09-0.869,4.677-1.135c0.455-0.207,0.821-0.569,1.031-1.023c1.065-2.295,0.585-5.044-1.195-6.842
				C10.288,5.9,7.368,4.106,4.919,4.106L4.919,4.106z"/>
		</g>
	</g>
	<circle fill="#FFFFFF" cx="26.752" cy="24.541" r="0.771"/>
	<circle fill="#FFFFFF" cx="23.618" cy="24.541" r="0.771"/>
	<g>
		<polygon stroke="#000000" stroke-width="1.2186" stroke-linecap="round" stroke-linejoin="round" stroke-miterlimit="10" points="
			9.88,29.154 21.622,29.562 10.342,31.272 		"/>
		<polygon stroke="#000000" stroke-linecap="round" stroke-linejoin="round" stroke-miterlimit="10" points="11.415,34.203 
			18.489,34.203 12.603,36.181 		"/>
		
			<polygon fill="none" stroke="#000000" stroke-width="1.2186" stroke-linecap="round" stroke-linejoin="round" stroke-miterlimit="10" points="
			14.761,38.386 17.011,38.155 15.967,39.658 		"/>
	</g>
	<g>
		<polygon stroke="#000000" stroke-width="1.2186" stroke-linecap="round" stroke-linejoin="round" stroke-miterlimit="10" points="
			40.424,29.154 28.606,29.562 39.888,31.272 		"/>
		<polygon stroke="#000000" stroke-linecap="round" stroke-linejoin="round" stroke-miterlimit="10" points="39.046,34.203 
			32.089,34.203 37.828,36.181 		"/>
		
			<polygon fill="none" stroke="#000000" stroke-width="1.2186" stroke-linecap="round" stroke-linejoin="round" stroke-miterlimit="10" points="
			35.874,38.383 33.218,38.092 34.203,39.51 		"/>
	</g>
	<path fill="none" stroke="#333333" stroke-width="2" stroke-linecap="round" stroke-linejoin="round" stroke-miterlimit="10" d="
		M25.172,8.143c-10.398,0-18.83,8.43-18.83,18.829c0,8.099,5.115,14.941,12.289,17.601c0,0,4.815-2.87,4.815-10.87h3.596
		c0,8,4.816,10.87,4.816,10.87c7.176-2.66,12.287-9.533,12.287-17.632c0-10.399-8.429-18.813-18.828-18.813L25.172,8.143z"/>
</g>
</svg>
